<?xml version="1.0" encoding="utf-8"?>
<!-- Generator: Adobe Illustrator 25.0.1, SVG Export Plug-In . SVG Version: 6.00 Build 0)  -->
<svg version="1.0" id="katman_1" xmlns="http://www.w3.org/2000/svg" xmlns:xlink="http://www.w3.org/1999/xlink" x="0px" y="0px"
	 viewBox="0 0 376.3 268.7" style="enable-background:new 0 0 376.3 268.7;" xml:space="preserve">
<style type="text/css">
	.st0{fill:#FFFFFF;}
	.st1{fill:#FFD300;}
	.st2{fill:#D90000;}
</style>
<path d="M188.2,245l-0.8-0.5c-51.7-28.6-80.2-72.7-80.2-124.4V30.9l80.9-7.4l81.1,7.4v89.3c0,51.7-28.5,95.8-80.2,124.4L188.2,245z"
	/>
<path d="M108.9,32.5v87.6c0,51,28.1,94.6,79.2,122.8c51.1-28.2,79.2-71.8,79.2-122.8V32.5L188,25.3L108.9,32.5z M188.2,247l-1.7-0.9
	c-52.3-28.9-81.1-73.6-81.1-126V29.2l82.7-7.6h0.2l82.8,7.6v90.9c0,52.3-28.8,97.1-81.1,126L188.2,247z"/>
<polygon class="st0" points="188.2,25.1 108.8,32.4 108.8,62.1 267.5,62.1 267.5,32.4 "/>
<path class="st1" d="M218.5,222.4c34.4-29,49.1-65.5,49.1-102.3V62.1H161.8L218.5,222.4z"/>
<path class="st2" d="M161.8,62.1h-53v58.1c0,46.2,23.1,91.9,79.4,122.9c10.7-5.9,20.9-12.8,30.3-20.6L161.8,62.1z"/>
<rect x="188.4" y="57.2" transform="matrix(0.9429 -0.3331 0.3331 0.9429 -36.5243 71.467)" width="3.4" height="170.1"/>
<path d="M110.5,34v86.2c0,50.1,27.6,93,77.6,121c50.1-28,77.7-70.9,77.7-121V34L188,26.8L110.5,34z M188.2,245l-0.8-0.4
	c-51.7-28.5-80.2-72.7-80.2-124.4V30.9l80.9-7.4l81.1,7.4v89.3c0,51.7-28.5,95.8-80.2,124.4L188.2,245z"/>
<rect x="108.8" y="60.4" width="158.7" height="3.4"/>
<path class="st0" d="M193.8,120l-0.5,1.2c-0.6,0.9-0.6,2.1-0.2,3.1c0.9,0,1.7-0.5,2.2-1.2c0,1.1,0.6,2.2,1.5,2.8
	c0.9-0.7,1.5-1.7,1.5-2.8c0.5,0.7,1.4,1.2,2.3,1.2c0.4-1,0.3-2.1-0.2-3l-0.5-1.2L193.8,120z"/>
<path d="M195.9,121.5l0.2,1.5c0.1,0.7,0.4,1.4,0.8,2c0.5-0.6,0.8-1.3,0.8-2.1l0.2-1.5l1,1.2c0.3,0.4,0.8,0.8,1.3,0.9
	c0.1-0.7,0-1.4-0.3-2.1v-0.1l-0.3-0.8h-5.3l-0.3,0.9c-0.3,0.6-0.5,1.4-0.3,2.1c0.5-0.2,1-0.5,1.3-0.9L195.9,121.5z M196.9,126.7
	l-0.3-0.2c-0.8-0.5-1.3-1.3-1.6-2.1c-0.6,0.4-1.2,0.6-1.9,0.6h-0.3l-0.2-0.3c-0.5-1.2-0.5-2.5,0.2-3.6l0.6-1.6h7.1l0.6,1.6
	c0.6,1.1,0.7,2.5,0.2,3.6l-0.2,0.3h-0.3c-0.7,0-1.4-0.2-1.9-0.6c-0.2,0.9-0.8,1.6-1.6,2.1L196.9,126.7z"/>
<path class="st0" d="M199.7,118.8c0.1-0.5,0.3-1.1,0.5-1.5c0.4-0.7,1.2-1.1,2-0.8c0.9,0.3,1.6,1,2,1.8c0.7-1.5,0.7-3.2-0.1-4.6
	c-0.5-0.7-1.2-1.3-2-1.5c0,0-3.2-1-4,4.7h-2.3c-0.8-5.6-4-4.7-4-4.7c-0.8,0.2-1.5,0.8-2,1.5c-0.7,1.4-0.8,3.1-0.1,4.6
	c0.4-0.9,1.1-1.5,2-1.8c0.8-0.2,1.6,0.1,2,0.8c0.2,0.5,0.4,1,0.5,1.5H199.7z"/>
<path d="M194.7,118.1h4.5c0.1-0.4,0.3-0.8,0.5-1.2c0.5-1,1.7-1.4,2.7-1.1c0.6,0.2,1.2,0.5,1.6,1c0.2-0.9,0.1-1.9-0.4-2.8
	c-0.4-0.6-1-1-1.6-1.2c-0.5-0.1-1,0-1.4,0.3c-0.9,0.6-1.5,1.9-1.7,3.9l-0.1,0.6h-3.5l-0.1-0.6c-0.3-2-0.9-3.3-1.8-3.9
	c-0.4-0.3-0.9-0.4-1.4-0.3c-0.7,0.2-1.3,0.6-1.7,1.2c-0.5,0.8-0.6,1.8-0.4,2.8c0.4-0.5,1-0.8,1.6-1c1-0.3,2.1,0.2,2.7,1.1
	C194.4,117.3,194.5,117.7,194.7,118.1 M204.1,119.7l-0.6-1.1c-0.3-0.7-0.8-1.2-1.5-1.5c-0.5-0.2-1,0.1-1.2,0.5
	c-0.2,0.4-0.4,0.9-0.4,1.3l-0.1,0.5h-6.7l-0.1-0.5c-0.1-0.5-0.2-0.9-0.4-1.3c-0.2-0.5-0.7-0.7-1.2-0.5c-0.7,0.3-1.3,0.8-1.6,1.5
	l-0.6,1.1l-0.6-1.1c-0.8-1.6-0.8-3.6,0.1-5.2c0.5-0.9,1.4-1.5,2.4-1.8c0.8-0.2,1.7,0,2.4,0.4c1.1,0.7,1.9,2.1,2.3,4.2h1.2
	c0.4-2.1,1.1-3.5,2.3-4.2c0.7-0.5,1.6-0.6,2.4-0.4c1,0.3,1.8,0.9,2.4,1.8c0.9,1.6,0.9,3.6,0.1,5.2L204.1,119.7z"/>
<path class="st0" d="M196.9,104.8c0,0-4.1,3.8-0.8,13.8h1.6C201,108.6,196.9,104.8,196.9,104.8"/>
<path d="M196.6,117.8h0.6c2.2-7.1,0.6-10.8-0.3-12.1C196.1,107.1,194.4,110.8,196.6,117.8 M198.2,119.1h-2.5l-0.2-0.4
	c-3.4-10.2,0.8-14.3,1-14.4l0.4-0.4l0.4,0.4c0.2,0.2,4.4,4.2,1,14.4L198.2,119.1z"/>
<path d="M200,118.5h-6.2c-0.6,0-1,0.4-1,1s0.4,1,1,1h6.2c0.6,0,1-0.4,1-1S200.6,118.5,200,118.5"/>
<path d="M193.8,119c-0.3,0-0.4,0.3-0.4,0.5c0,0.2,0.2,0.4,0.4,0.4h6.2c0.3,0,0.4-0.3,0.4-0.5c0-0.2-0.2-0.4-0.4-0.4H193.8z M200,121
	h-6.2c-0.8,0-1.5-0.7-1.5-1.5s0.7-1.5,1.5-1.5h6.2c0.8,0,1.5,0.7,1.5,1.5S200.8,121,200,121"/>
<path class="st0" d="M252.1,120l-0.5,1.2c-0.5,0.9-0.6,2.1-0.2,3c0.9,0,1.7-0.5,2.2-1.2c-0.5,0.8-0.3,1.9,0.5,2.5
	c0.8,0.5,1.9,0.3,2.5-0.5c0.4-0.6,0.4-1.4,0-2c0.5,0.7,1.4,1.2,2.3,1.2c0.4-1,0.4-2.1-0.2-3l-0.5-1.2L252.1,120z"/>
<path d="M254.2,121.5l0.2,1.5c0.1,0.7,0.3,1.4,0.8,2c0.5-0.6,0.8-1.3,0.8-2.1l0.2-1.5l1,1.2c0.3,0.4,0.8,0.8,1.3,0.9
	c0.1-0.7,0-1.4-0.3-2.1v-0.1l-0.3-0.8h-5.3l-0.3,0.9c-0.3,0.6-0.5,1.4-0.3,2.1c0.5-0.2,1-0.5,1.3-0.9L254.2,121.5z M255.2,126.7
	l-0.3-0.2c-0.8-0.5-1.3-1.3-1.6-2.1c-0.6,0.4-1.2,0.6-1.9,0.6H251l-0.2-0.3c-0.5-1.2-0.5-2.5,0.2-3.6l0.6-1.6h7.1l0.6,1.6
	c0.6,1.1,0.7,2.5,0.2,3.6l-0.2,0.3H259c-0.7,0-1.4-0.2-1.9-0.6c-0.2,0.9-0.8,1.6-1.6,2.1L255.2,126.7z"/>
<path class="st0" d="M257.9,118.8c0.1-0.5,0.3-1.1,0.5-1.5c0.4-0.7,1.2-1.1,2-0.8c0.9,0.3,1.6,1,2,1.8c0.7-1.5,0.7-3.2-0.1-4.6
	c-0.5-0.7-1.2-1.3-2-1.5c0,0-3.2-1-4,4.7H254c-0.8-5.6-4-4.7-4-4.7c-0.8,0.2-1.5,0.8-2,1.5c-0.7,1.4-0.8,3.1-0.1,4.6
	c0.4-0.9,1.1-1.5,2-1.8c0.8-0.2,1.6,0.1,2,0.8c0.2,0.5,0.4,1,0.5,1.5H257.9z"/>
<path d="M252.9,118.1h4.5c0.1-0.4,0.3-0.8,0.5-1.2c0.5-1,1.7-1.4,2.7-1.1c0.6,0.2,1.2,0.5,1.6,1c0.2-0.9,0.1-1.9-0.4-2.8
	c-0.4-0.6-1-1-1.6-1.2c-0.5-0.1-1,0-1.4,0.3c-0.9,0.6-1.5,1.9-1.7,3.9l-0.1,0.6h-3.5l-0.1-0.6c-0.3-2-0.9-3.3-1.8-3.9
	c-0.4-0.3-0.9-0.4-1.4-0.3c-0.7,0.2-1.3,0.6-1.7,1.2c-0.5,0.8-0.6,1.8-0.4,2.8c0.4-0.5,1-0.8,1.6-1c1-0.3,2.2,0.2,2.7,1.1
	C252.6,117.3,252.7,117.7,252.9,118.1 M262.3,119.7l-0.6-1.1c-0.3-0.7-0.8-1.2-1.5-1.5c-0.5-0.1-1,0.1-1.2,0.5
	c-0.2,0.4-0.4,0.9-0.4,1.3l-0.1,0.5h-6.7l-0.1-0.5c-0.1-0.5-0.2-0.9-0.4-1.3c-0.2-0.4-0.7-0.7-1.2-0.5c-0.7,0.3-1.3,0.8-1.6,1.5
	l-0.6,1.1l-0.6-1.1c-0.8-1.6-0.8-3.6,0.1-5.2c0.6-0.9,1.4-1.5,2.4-1.8c0.8-0.2,1.7,0,2.4,0.4c1.1,0.7,1.9,2.1,2.3,4.2h1.2
	c0.4-2.1,1.1-3.5,2.3-4.2c0.7-0.5,1.6-0.6,2.4-0.4c1,0.3,1.8,0.9,2.4,1.8c0.9,1.6,0.9,3.6,0.1,5.2L262.3,119.7z"/>
<path class="st0" d="M255.2,104.8c0,0-4.1,3.8-0.8,13.8h1.6C259.3,108.6,255.2,104.8,255.2,104.8"/>
<path d="M254.8,117.8h0.6c1.5-4.7,1.2-7.8,0.7-9.7c-0.2-0.8-0.5-1.7-1-2.4C254.3,107.1,252.6,110.8,254.8,117.8 M256.4,119.1h-2.5
	l-0.2-0.4c-3.4-10.2,0.8-14.3,1-14.4l0.4-0.4l0.4,0.4c0.2,0.2,4.4,4.2,1,14.4L256.4,119.1z"/>
<path d="M258.2,118.5h-6.2c-0.6,0-1,0.4-1,1s0.4,1,1,1h6.2c0.6,0,1-0.4,1-1S258.8,118.5,258.2,118.5"/>
<path d="M252.1,119c-0.3,0-0.4,0.3-0.4,0.5c0,0.2,0.2,0.4,0.4,0.4h6.2c0.3,0,0.4-0.3,0.4-0.5c0-0.2-0.2-0.4-0.4-0.4H252.1z
	 M258.2,121h-6.2c-0.8,0-1.5-0.7-1.5-1.5s0.7-1.5,1.5-1.5h6.2c0.8,0,1.5,0.7,1.5,1.5S259,121,258.2,121"/>
<path class="st0" d="M238.9,152v-9.1c-0.1-1.5,1.1-2.8,2.6-2.9c1.5-0.1,2.8,1.1,2.9,2.6c0,0.1,0,0.2,0,0.3v9.1h7.3l-6.5-30.8v-19.5
	l2.5-3.1v-5.1H245v2.3h-2.3v-2.3h-2.6v2.3h-2.3v-2.3h-2.6v2.4h-18.3v-2.4h-2.6v2.3H212v-2.3h-2.6v2.3h-2.3v-2.3h-2.7v5.1l2.5,3.1
	v19.5l-6.4,30.8h7.3v-9.1c-0.1-1.5,1.1-2.8,2.6-2.9c1.5-0.1,2.8,1.1,2.9,2.6c0,0.1,0,0.2,0,0.3v9.1H238.9z"/>
<path d="M245,151.3h5.8l-6.3-30.1v-0.1v-19.7l2.5-3.1v-4.2h-1.4v2.3h-3.5v-2.3h-1.3v2.3h-3.6v-2.3h-1.3v2.4h-19.6v-2.4H215v2.3h-3.6
	v-2.3H210v2.3h-3.5v-2.3h-1.4v4.2l2.5,3.1v19.9l-6.3,30h5.8v-8.5c-0.1-1.9,1.3-3.5,3.2-3.6s3.5,1.3,3.6,3.2c0,0.1,0,0.2,0,0.4v8.5
	h24.4v-8.5c-0.1-1.9,1.2-3.5,3.1-3.6c1.9-0.1,3.5,1.2,3.6,3.1c0,0.2,0,0.3,0,0.5L245,151.3z M252.4,152.6h-8.7v-9.8
	c0.1-1.1-0.8-2.1-1.9-2.2c-1.1-0.1-2.1,0.8-2.2,1.9c0,0.1,0,0.2,0,0.3v9.8h-27.1v-9.8c0.1-1.1-0.7-2.2-1.9-2.3s-2.2,0.7-2.3,1.9
	c0,0.1,0,0.3,0,0.4v9.8h-8.7l6.6-31.5v-19.2l-2.5-3.1v-6h4v2.3h1v-2.3h3.9v2.3h1v-2.3h3.9v2.4h17v-2.4h3.9v2.3h1v-2.3h3.9v2.3h1
	v-2.3h4v6l-2.5,3.1v19.2L252.4,152.6z"/>
<path d="M237.2,113.8v-5.4c-0.1-1.2,0.8-2.2,2-2.2s2.2,0.8,2.2,2c0,0.1,0,0.2,0,0.3v5.4H237.2z"/>
<rect x="206.9" y="120.5" width="38.2" height="1.3"/>
<path d="M237.2,154.4l-2-14.4c0.8-0.5,1.3-1.4,1.3-2.4c0-1.1-0.6-2.1-1.7-2.6l-1.5-46l4.1-0.3v-1L226,80.4l-11.4,7.3v1l4.1,0.3
	l-1.6,46c-1.4,0.7-2,2.5-1.2,3.9c0.2,0.5,0.6,0.8,1,1.1l-2,14.4v1.2h22.3V154.4z"/>
<rect x="220.8" y="89.4" class="st1" width="2" height="4.7"/>
<rect x="225.1" y="89.4" class="st1" width="2" height="4.7"/>
<rect x="229.4" y="89.4" class="st1" width="2" height="4.7"/>
<path d="M224.4,78.6c0.1-0.9,0.8-1.5,1.7-1.5c0.9,0.1,1.5,0.8,1.5,1.7c-0.1,0.8-0.8,1.5-1.6,1.5C225.1,80.3,224.4,79.5,224.4,78.6
	 M223.1,78.6c0.1,1.6,1.5,2.8,3.1,2.7s2.8-1.5,2.7-3.1c-0.1-1.5-1.4-2.7-2.9-2.7C224.4,75.5,223.1,76.9,223.1,78.6
	C223.1,78.6,223.1,78.6,223.1,78.6"/>
<rect x="220" y="126.1" class="st0" width="2.2" height="8.6"/>
<rect x="229.8" y="126.1" class="st0" width="2.2" height="8.6"/>
<rect x="224.9" y="126.1" class="st0" width="2.2" height="8.6"/>
<rect x="204.5" y="98" width="43" height="1.3"/>
<rect x="206.8" y="101.1" width="38.3" height="1.3"/>
<rect x="206.8" y="117.4" width="38.3" height="1.3"/>
<path d="M214.9,113.8v-5.4c0.1-1.2-0.8-2.2-2-2.2s-2.2,0.8-2.2,2c0,0.1,0,0.2,0,0.3v5.4H214.9z"/>
<path class="st0" d="M141.4,98.2c3.8,0,6-1.8,6-4.8v-0.1c0-3.2-2.3-4.8-6-4.8h-7.3v9.7L141.4,98.2z M122.9,78.9h19
	c6.1,0,10.4,1.6,13.1,4.4c2.4,2.5,3.7,5.9,3.6,9.4v0.1c0,6.1-3.3,10.2-8.3,12.4l9.6,14H147l-8.1-12.2h-4.9v12.2h-11.1V78.9z"/>
<path class="st0" d="M134.7,149.5v-0.1c0-11.7,9-20.9,21.2-20.9c8.2,0,13.5,3.5,17.1,8.4l-8.4,6.5c-2.3-2.9-5-4.7-8.8-4.7
	c-5.6,0-9.6,4.8-9.6,10.6v0.1c0,6,4,10.8,9.6,10.8c4.2,0,6.7-2,9.1-4.9l8.4,6c-3.8,5.2-8.9,9.1-17.8,9.1
	c-11.3,0.2-20.6-8.8-20.8-20.1C134.7,150,134.7,149.8,134.7,149.5"/>
<polygon class="st0" points="167.2,175.7 178.3,175.7 178.3,206.2 197.8,206.2 197.8,215.9 167.2,215.9 "/>
<polygon points="178.5,31.9 176.6,32.5 176.9,33.8 178.1,33.5 178.1,39.2 179.6,39.2 179.6,31.9 "/>
<path d="M183.8,33.2c-0.6-0.1-1.1,0.4-1.2,1c0,0,0,0.1,0,0.1c0,0.6,0.5,1.1,1,1.1c0,0,0.1,0,0.1,0c0.6,0.1,1.1-0.4,1.2-0.9
	c0,0,0-0.1,0-0.1c0-0.6-0.5-1.1-1.1-1.1C183.9,33.2,183.9,33.2,183.8,33.2 M183.6,39.3c-0.8,0-1.6-0.3-2.2-0.9l0.8-1.2
	c0.4,0.4,0.9,0.6,1.5,0.6c0.8,0,1.3-0.7,1.4-1.6c-0.4,0.3-0.9,0.5-1.4,0.5c-1.2,0.1-2.3-0.8-2.4-2c0-0.1,0-0.3,0-0.4
	c0-1.4,1-2.5,2.4-2.5c0.1,0,0.1,0,0.2,0c0.8-0.1,1.5,0.2,2,0.8c0.6,0.8,0.9,1.7,0.8,2.7C186.6,37.7,185.6,39.3,183.6,39.3"/>
<path d="M190.3,33.3c-0.9,0-1.5,1-1.5,2.3s0.6,2.3,1.5,2.3s1.5-1,1.5-2.3S191.2,33.3,190.3,33.3 M190.3,39.3c-1.8,0-3-1.6-3-3.7
	s1.2-3.7,3-3.7s3,1.6,3,3.7S192.1,39.3,190.3,39.3"/>
<path d="M196.8,35.8c-0.5-0.1-1.1,0.3-1.2,0.8c0,0.1,0,0.1,0,0.2c0,0.6,0.5,1.1,1.1,1.1c0,0,0.1,0,0.1,0c0.6,0.1,1.1-0.3,1.2-0.9
	c0,0,0-0.1,0-0.1c0-0.6-0.5-1.1-1.1-1.1C196.9,35.8,196.8,35.8,196.8,35.8 M198.4,33.8c-0.4-0.4-0.9-0.6-1.4-0.6
	c-0.8,0-1.3,0.7-1.4,1.7c0.4-0.3,0.9-0.5,1.4-0.5c1.2-0.1,2.3,0.8,2.4,2c0,0.1,0,0.2,0,0.3c0,1.4-1.1,2.5-2.4,2.5
	c-0.1,0-0.1,0-0.2,0c-0.7,0.1-1.5-0.2-2-0.8c-0.6-0.8-0.9-1.8-0.8-2.7c0-2.2,1-3.9,3-3.9c0.8,0,1.6,0.3,2.1,0.8L198.4,33.8z"/>
<path d="M120,48.6c0.7,0,1.1-0.5,1.1-1.3l0,0c0-0.9-0.4-1.3-1.1-1.3h-1.2v2.7L120,48.6z M116,42.2h4.2c1.2-0.1,2.4,0.5,3,1.5
	c0.6,1,0.8,2.1,0.8,3.2l0,0c0.1,1.6-0.5,3.1-1.7,4.2l2,4.6h-3.2l-1.6-3.9h-0.6v3.9h-2.8L116,42.2z"/>
<path d="M130.1,50.7l-0.8-3.3l-0.8,3.3H130.1z M127.9,42.1h2.8l3.6,13.7h-3.1l-0.4-1.8h-3l-0.4,1.8h-3L127.9,42.1z"/>
<path d="M133.8,49L133.8,49c0-4.1,2-7.1,4.5-7.1c1.9,0,3.1,1.5,3.8,3.5l-2.3,2.2c-0.3-1-0.8-1.6-1.5-1.6c-1,0-1.6,1.3-1.6,3l0,0
	c0,1.8,0.6,3,1.6,3s1.2-0.7,1.6-1.7l2.3,2.1c-0.7,2-1.9,3.7-4,3.7C135.8,56,133.8,53.2,133.8,49"/>
<rect x="142.8" y="42.2" width="2.8" height="13.6"/>
<polygon points="146.8,42.2 149.5,42.2 152.5,48.2 152.5,42.2 155.3,42.2 155.3,55.8 152.8,55.8 149.7,49.5 149.7,55.8 146.8,55.8 
	"/>
<path d="M156,49L156,49c0-4.1,2-7.1,4.7-7.1c1.5,0,2.8,0.8,3.5,2.1l-1.6,3.1c-0.4-0.7-1.1-1.1-1.9-1.2c-1.1,0-1.9,1.4-1.9,3.2l0,0
	c0,1.9,0.8,3.2,2,3.2c0.4,0,0.7-0.1,1-0.3v-1.4h-1.5v-2.9h4.1V54c-0.9,1.2-2.3,2-3.8,2C158.1,56,156,53.2,156,49"/>
<path d="M168.7,49L168.7,49c0-4.1,2-7.1,4.5-7.1c1.9,0,3.1,1.5,3.9,3.5l-2.3,2.2c-0.3-1-0.8-1.6-1.5-1.6c-1,0-1.6,1.3-1.6,3l0,0
	c0,1.8,0.7,3,1.6,3s1.2-0.7,1.6-1.7l2.3,2.1c-0.7,2-1.9,3.7-4,3.7C170.7,56.1,168.7,53.2,168.7,49"/>
<polygon points="177.7,42.2 180.5,42.2 180.5,51.9 184.5,51.9 184.5,55.8 177.7,55.8 "/>
<path d="M185,49.7v-7.5h2.9v7.4c0,1.7,0.5,2.4,1.3,2.4s1.3-0.7,1.3-2.3v-7.5h2.9v7.4c0,4.6-1.7,6.5-4.2,6.5S185,54.2,185,49.7"/>
<path d="M198.7,52.4c0.5,0,0.9-0.3,0.9-0.8c0-0.1,0-0.1,0-0.2l0,0c0.1-0.5-0.3-0.9-0.7-1c-0.1,0-0.1,0-0.2,0h-1.4v2H198.7z
	 M198.5,47.5c0.4,0,0.8-0.3,0.9-0.7c0-0.1,0-0.1,0-0.2l0,0c0.1-0.4-0.2-0.9-0.7-0.9c-0.1,0-0.1,0-0.2,0h-1.2v1.9L198.5,47.5z
	 M194.5,42.2h4.8c1-0.1,1.9,0.4,2.4,1.2c0.4,0.6,0.5,1.4,0.5,2.1l0,0c0.1,1.2-0.5,2.4-1.5,3.1c1.1,0.5,1.8,1.4,1.8,3.3l0,0
	c0,2.2-1.1,3.8-3.3,3.8h-4.7L194.5,42.2z"/>
<path d="M210,51.8c1.3,0,2.1-0.9,2.1-2.8l0,0c0-2-0.8-2.8-2.1-2.8h-0.5v5.7L210,51.8z M206.7,42.2h3.2c3.4,0,5.1,2.7,5.1,6.7l0,0
	c0,4-1.7,6.9-5.2,6.9h-3.2L206.7,42.2z"/>
<polygon points="215.6,42.2 222.8,42.2 222.8,45.9 218.3,45.9 218.3,47.3 222.5,47.3 222.5,50.6 218.3,50.6 218.3,52 222.8,52 
	222.8,55.8 215.6,55.8 "/>
<polygon points="227.2,42.2 230,42.2 230,51.9 234,51.9 234,55.8 227.2,55.8 "/>
<polygon points="235,42.2 242.3,42.2 242.3,45.9 237.8,45.9 237.8,47.3 242,47.3 242,50.6 237.8,50.6 237.8,52 242.3,52 242.3,55.8 
	235,55.8 "/>
<polygon points="243.4,42.2 246,42.2 249,48.2 249,42.2 251.9,42.2 251.9,55.8 249.3,55.8 246.2,49.5 246.2,55.8 243.4,55.8 "/>
<path d="M252.3,53.7l1.5-2.9c0.7,1,1.8,1.6,3,1.6c0.5,0,0.7-0.2,0.7-0.6l0,0c0-0.4-0.3-0.6-1.2-0.9c-1.9-0.6-3.6-1.5-3.6-4.4l0,0
	c0-2.6,1.3-4.6,3.6-4.6c1.5,0,2.9,0.7,3.8,1.9l-1.4,3.1c-0.6-0.8-1.5-1.3-2.5-1.4c-0.3,0-0.6,0.2-0.6,0.5c0,0,0,0.1,0,0.1l0,0
	c0,0.4,0.2,0.6,1.1,0.9c2.2,0.6,3.6,1.6,3.6,4.4l0,0c0,2.9-1.5,4.6-3.8,4.6C255,56,253.3,55.2,252.3,53.7"/>
</svg>
