<svg id="Layer_1" data-name="Layer 1" xmlns="http://www.w3.org/2000/svg" viewBox="0 0 493.57 500"><defs><style>.cls-1{fill:#ffff01;}.cls-2{fill:#ffe801;}.cls-3{fill:#ffeb01;}.cls-4{fill:#ffed01;}.cls-5{fill:#f21001;}.cls-6{fill:#fff201;}</style></defs><path d="M524.47,729.75c-2,5.87-8.34,20.25-23.74,20.25-17.48,0-23.59-18.94-23.88-19.72l-.5-1.82s15.07,1.26,23.37,1.26,22.47-.81,24.79-1.26l0,1.29Z" transform="translate(-253.22 -250)"/><path d="M570.37,720.41l3.61.48c-4.28,11.17-12,23.7-27.11,23.7-14.63,0-21.89-8.48-25-14.19l-2.52-1.55a229.74,229.74,0,0,0,51-8.44Z" transform="translate(-253.22 -250)"/><path d="M431.62,720.41l-3.61.48c4.28,11.17,12,23.7,27.11,23.7A29.64,29.64,0,0,0,480.9,730.4l1.73-1.55a229.79,229.79,0,0,1-51-8.44Z" transform="translate(-253.22 -250)"/><path class="cls-1" d="M513,730.91c-2.37,3.44-3.95,3.27-6.81,3.27-1.43,0-3.58,1.19-3.51,3.34.05,1.68,1.42,3.09,3.75,3.09,5.17,0,9.1-7.22,10.21-10.27,0,0,3.05-.13,4-.22,0,0-5.48,16.31-19.67,16.31s-20-16.13-20-16.13,12,.74,18.83.74,11.22,0,13.27-.13Z" transform="translate(-253.22 -250)"/><path class="cls-1" d="M568.47,723.74c-9.28,2.5-15.87,4.51-31.45,6.42,0,0,.49,1.6,3.88,1.43a5.74,5.74,0,0,0,2-.48,2.22,2.22,0,0,1,2.27,2.53c-.14,1.18-1.15,2.68-4.59,2.68s-7.49-2.83-9.52-5.44a29.06,29.06,0,0,1-4.21.59,25.11,25.11,0,0,0,19.71,9.29c14.39,0,19.7-12.86,22-17Z" transform="translate(-253.22 -250)"/><path class="cls-2" d="M558.82,732.82a10.64,10.64,0,0,0-1.88-6.07,174,174,0,0,1-19.23,3.32c-.06.25-.12.5-.16.76a4.75,4.75,0,0,0,3.35.76,5.74,5.74,0,0,0,2-.48,2.22,2.22,0,0,1,2.27,2.53c-.14,1.18-1.15,2.68-4.59,2.68a8.29,8.29,0,0,1-2.75-.52,10.82,10.82,0,0,0,2.31,4.17,26,26,0,0,0,6.42.79,19.92,19.92,0,0,0,11.23-3.26,10.66,10.66,0,0,0,1.08-4.68Z" transform="translate(-253.22 -250)"/><path class="cls-3" d="M558.67,732.82a10.52,10.52,0,0,0-1.88-6,176.21,176.21,0,0,1-18.92,3.26c-.08.29-.14.58-.2.88a5.08,5.08,0,0,0,3.23.66,5.74,5.74,0,0,0,2-.48,2.22,2.22,0,0,1,2.27,2.53c-.14,1.18-1.15,2.68-4.59,2.68a8.22,8.22,0,0,1-2.58-.46,10.77,10.77,0,0,0,2.4,4.18,26.16,26.16,0,0,0,6.16.72,20,20,0,0,0,11-3.1,10.51,10.51,0,0,0,1.17-4.84Z" transform="translate(-253.22 -250)"/><path class="cls-4" d="M558.53,732.82a10.43,10.43,0,0,0-1.89-6A174.36,174.36,0,0,1,538,730a7.75,7.75,0,0,0-.22,1,5.28,5.28,0,0,0,3.09.57,5.74,5.74,0,0,0,2-.48,2.22,2.22,0,0,1,2.27,2.53c-.14,1.18-1.15,2.68-4.59,2.68a7.92,7.92,0,0,1-2.41-.41,10.5,10.5,0,0,0,2.49,4.19,26.37,26.37,0,0,0,5.9.66,20.05,20.05,0,0,0,10.74-2.94,10.44,10.44,0,0,0,1.28-5Z" transform="translate(-253.22 -250)"/><path class="cls-1" d="M433.52,723.74c9.28,2.5,15.87,4.51,31.45,6.42,0,0-.49,1.6-3.88,1.43a5.74,5.74,0,0,1-1.95-.48,2.21,2.21,0,0,0-2.26,2.53c.12,1.18,1.14,2.68,4.59,2.68s7.48-2.83,9.5-5.44a29.33,29.33,0,0,0,4.22.59,25.11,25.11,0,0,1-19.71,9.29c-14.39,0-19.7-12.86-22-17Z" transform="translate(-253.22 -250)"/><path class="cls-1" d="M499.55,647.24c49.58,0,104.52-30.44,143.05-74.32,4.17-4.74,11.24-13.73,28-13.73s39.06,15.27,36.43,43.1c-1.91,20.28-30.9,66-80.49,94.18s-95.25,34.25-127,34.25-77.42-6.06-127-34.25-78.58-73.9-80.49-94.18c-2.63-27.83,19.66-43.1,36.43-43.1s23.85,9,28,13.73C395,616.8,450,647.24,499.55,647.24Z" transform="translate(-253.22 -250)"/><path d="M499.55,645.46c24,0,49.35-7.25,73.43-19.76a238.83,238.83,0,0,0,68.28-54,45,45,0,0,1,9.65-9c4.64-3,10.92-5.38,19.7-5.38q1.36,0,2.91.15A40,40,0,0,1,709,597.85c0,1.45-.07,3-.23,4.6-1.09,11.65-10.77,31.34-27.87,51.35A203.65,203.65,0,0,1,627.43,698a264.41,264.41,0,0,1-70.67,27.88,251.3,251.3,0,0,1-114.43,0A264.41,264.41,0,0,1,371.66,698a203.24,203.24,0,0,1-53.5-44.22c-17.1-20-26.78-39.69-27.88-51.35-.16-1.61-.23-3.15-.23-4.6a40,40,0,0,1,35.52-40.3q1.55-.15,2.91-.15c8.78,0,15.06,2.38,19.7,5.38a44.79,44.79,0,0,1,9.65,9,238.83,238.83,0,0,0,68.28,54c24.08,12.51,49.41,19.76,73.44,19.76Zm0,3.56c-24.62,0-50.51-7.39-75.09-20.16a242.68,242.68,0,0,1-69.31-54.76,41.84,41.84,0,0,0-8.91-8.33c-4.13-2.68-9.77-4.8-17.76-4.8-.89,0-1.75,0-2.57.12a36.45,36.45,0,0,0-32.29,36.76c0,1.43.07,2.85.2,4.28,1,11,10.42,29.91,27,49.35a199.71,199.71,0,0,0,52.56,43.45,260.66,260.66,0,0,0,69.72,27.5,247.61,247.61,0,0,0,112.81,0,260.53,260.53,0,0,0,69.72-27.5,199.55,199.55,0,0,0,52.56-43.45c16.62-19.44,26-38.33,27-49.35.14-1.43.2-2.85.2-4.28a36.43,36.43,0,0,0-32.29-36.76c-.83-.08-1.68-.12-2.57-.12-8,0-13.63,2.12-17.76,4.8a41.84,41.84,0,0,0-8.91,8.33,242.58,242.58,0,0,1-69.31,54.76C550.05,641.63,524.16,649,499.55,649Z" transform="translate(-253.22 -250)"/><path class="cls-5" d="M350.92,577.28l-.57-.66c-4-4.53-9.36-10.74-22.27-10.74-7.53,0-16.06,4-21.74,10.25-4.23,4.66-9,12.84-7.86,25.34,1.62,17.09,28.74,61.39,77,88.86,38.94,22.12,80.53,33.34,123.61,33.34s84.67-11.22,123.61-33.34c48.31-27.47,75.44-71.77,77-88.86,1.18-12.5-3.62-20.68-7.86-25.34-5.67-6.22-14.2-10.25-21.73-10.25-12.92,0-18.33,6.21-22.27,10.74l-.58.66c-41.52,47.28-98.31,76.65-148.22,76.65s-106.7-29.37-148.22-76.65Z" transform="translate(-253.22 -250)"/><path class="cls-1" d="M658.84,521.51a43.08,43.08,0,1,1,43.08,43.07,43.08,43.08,0,0,1-43.08-43.07Z" transform="translate(-253.22 -250)"/><path d="M657.06,521.51a44.85,44.85,0,1,1,13.14,31.72,44.73,44.73,0,0,1-13.14-31.72Zm3.57,0a41.28,41.28,0,1,0,12.09-29.21,41.15,41.15,0,0,0-12.09,29.21Z" transform="translate(-253.22 -250)"/><path class="cls-1" d="M255,521.57a43.08,43.08,0,1,1,43.08,43.09A43.08,43.08,0,0,1,255,521.57Z" transform="translate(-253.22 -250)"/><path d="M253.22,521.57a44.86,44.86,0,1,1,13.14,31.73,44.73,44.73,0,0,1-13.14-31.73Zm3.56,0a41.31,41.31,0,1,0,12.1-29.19,41.17,41.17,0,0,0-12.1,29.19Z" transform="translate(-253.22 -250)"/><path d="M713.71,405.64,714,394.1a11.2,11.2,0,0,0,14.15-1.43,10.76,10.76,0,0,0,2.65-7.9,14.69,14.69,0,0,0-4.28-9.47C712,361.17,699.14,347,699.14,347a11.9,11.9,0,0,0-4.59-4.15c-1.82-.81-8.09-3.68-12.88,3.6-4.34,6.6-3.69,15.93-2.91,19.32l13.61,18.49c4.64,5.89,17.72,18.43,21.34,21.35Z" transform="translate(-253.22 -250)"/><path d="M423.66,285.68c17.1-5.73,32.71-10.46,53.76-12.34l-53.76,12.34Z" transform="translate(-253.22 -250)"/><path d="M423.66,285.73c17.1-5.74,32.71-10.47,53.76-12.34l3.21-1.81C468.86,262.33,457.19,256,445.56,256c-7.3,0-22.13,4.95-25.46,31.11l3.56-1.42Z" transform="translate(-253.22 -250)"/><path d="M575.48,285.73c-17.1-5.74-32.71-10.47-53.76-12.34l-3.21-1.81C530.28,262.33,542,256,553.58,256c7.3,0,22.13,4.95,25.46,31.11l-3.56-1.42Z" transform="translate(-253.22 -250)"/><path d="M485.53,270.76c3.48-.18,11.51-.36,14.72-.36s12.07.43,14,.57l-28.74-.21Z" transform="translate(-253.22 -250)"/><path d="M480.23,272.5c8.6-16.49,16.49-22.5,20.85-22.5,5.45,0,11.84,8.68,16.84,19.85l1.06,2.51-4.35-.36c-3-.53-11.17-.62-14.38-.62s-10.17,0-14.36.36l-5.66.76Z" transform="translate(-253.22 -250)"/><polygon class="cls-1" points="210.18 412.99 202.48 441.73 188.12 407.08 179.18 404.68 168.3 445.32 177.99 447.92 185.75 418.95 200.34 453.91 209.05 456.24 219.93 415.61 210.18 412.99 210.18 412.99"/><polygon class="cls-1" points="243.65 418.13 232.61 417.55 230.41 459.55 241.45 460.13 243.65 418.13 243.65 418.13"/><polygon class="cls-1" points="253.57 417.76 254.34 423.3 266.12 421.64 271.2 457.76 282.15 456.23 277.08 420.11 288.68 418.47 287.9 412.94 253.57 417.76 253.57 417.76"/><path class="cls-1" d="M620.74,650.64c5.34,9.38,4.27,16.19-4,21l-3.92,2.26-15.46-26.78,4.23-2.44c9.87-5.7,15.44-.63,19.13,6Zm-21.52-11.1L585,647.77l21.09,36.55,14.16-8.18c14.72-8.49,16.08-21.32,10.31-31.57-7-12.2-18.41-12.48-31.31-5Z" transform="translate(-253.22 -250)"/><polygon class="cls-1" points="319.3 441.29 315.1 428.37 327.57 424.32 325.82 418.95 313.36 423 309.77 411.97 322.58 407.81 320.85 402.5 297.48 410.09 310.47 450.09 336.25 441.72 334.5 436.35 319.3 441.29 319.3 441.29"/><path class="cls-1" d="M412.49,644.94,400,667.41c-3.76,6.78-7.63,11.07-14,7.41-6.29-3.48-4.83-8.69-1-15.63l12.48-22.52-10.06-5.58-13.18,23.79c-7.28,13.12,1.9,21.21,9,25.14,7.66,4.25,18.77,7.4,26-5.61l13.25-23.89-10.06-5.58Z" transform="translate(-253.22 -250)"/><path class="cls-1" d="M405.36,397.87v197l94.18,60.54,94.19-60.54.11-196.64c-3-2.67-9.25-8.53-14.19-11.55H419a151.16,151.16,0,0,0-13.65,11.24Z" transform="translate(-253.22 -250)"/><polygon points="153.93 147.87 153.93 343.85 246.33 403.24 338.73 343.85 338.85 148.18 342.41 148.18 342.29 344.82 342.29 345.79 341.47 346.32 247.29 406.86 246.33 407.48 245.37 406.86 151.18 346.32 150.36 345.79 150.36 147.87 153.93 147.87 153.93 147.87"/><path d="M592.65,399.51c-.85-.76-.21-.2-1.11-1h0c-3.22-2.9-8.6-7.77-12.82-10.35l1.85-3c4.57,2.8,10.08,7.77,13.36,10.75h0l1.1,1-2.38,2.66Z" transform="translate(-253.22 -250)"/><polygon points="326.43 138.41 165.79 138.41 165.79 134.85 326.43 134.85 326.43 138.41 326.43 138.41"/><path d="M420,388.09c-1.92,1.35-4.64,3.49-7.12,5.53-2.91,2.4-5.53,4.68-6.24,5.45l-2.62-2.41c.79-.86,3.56-3.28,6.6-5.78,2.64-2.18,5.46-4.4,7.33-5.71l2,2.92Z" transform="translate(-253.22 -250)"/><path class="cls-5" d="M506.2,482.11c-.66-.29-3,1.6-4.07,3.3s-1.38,3.87.13,4.68,3.43-.24,3.88-2.9c.27-1.56.77-4.77.06-5.08Zm-18,5.08c.39,2.67,2.37,3.7,3.88,2.9s1.2-3,.14-4.68-3.28-3.59-3.94-3.3-.3,3.56-.08,5.08Zm9.46,26.2a42.22,42.22,0,0,0,4.48-10.59h-9.06a44,44,0,0,0,4.58,10.59Zm1.56-39,7.31-12.73,5.7,12.73h9.46c-5.71,5.35-8,13.44-8,18.79v5.88a29.93,29.93,0,0,1-1.26,6.61s8.19,6.25,9.46,7.31c.53.44,1.1.7.71,1.78-.65,1.85-6.19,4.31-6.78,4.82-1.24,1.06-1.58,1.77-1.22,2.85s1.4,1.25,3.54.53,6.61-3,10.35-4.63a21.94,21.94,0,0,1,8.74-1.25v-7.14H523.09V487.1l-2.5-4,6.25-11.06,6.24,11.12-2.5,3.92v11.95h7.23V487.1l-2.5-3.92,6.24-11.06,6.24,11.06-2.49,3.92v11.95h7.22V487.1L550,483.18l6.24-11.06,6.24,11.06L560,487.1l.08,22.82H545.92v10.48c3.21,3,6.25,9.86,6.25,14a7.14,7.14,0,0,1-2.68,5.89,15.5,15.5,0,0,1,.36,7.49c-.37,3-4.11,7.67-4.11,7.67v54.39c0,3.7-8.56,3.35-8.56.17V556.67c-4.82-5.35-18-9.45-18-9.45-4.81,4.81-7.84,13.2-7.84,13.2,2.14,1.42,5.34,0,6.59-1.43a4.42,4.42,0,0,1,5.18-.9c1.43.9,1.79,1.26,1.24,3.4a39.47,39.47,0,0,0-1.42,8.17c0,2.5,2.85,2,5,2.15,4.27.35,5,5.17,4.63,7.85s-1.6,8.38-1.6,12a60.19,60.19,0,0,0,.53,9.1c.36,2,1.07,4.1.89,6.59-.24,3.39-2.32,3.93-4.45,1.79S496,575.2,496,575.2c-2,6.42,6.25,17.47,8.93,20.87s2.49,5.89.17,8.2-6.78,3.57-7.67,5.71,2.14,8.56,8.39,16.59-7.14,13.38-15.17,15-8-3.92-7.49-6.95a26.86,26.86,0,0,0,.36-7.5c-.18-2.67-2.68-6.41-6.07-10.88s-3.39-8.56-2-18.9a98,98,0,0,0,1.07-17s-3.57.18-8.74,0-9.45-3.19-9.81-15.68-.65-42.27-1.49-45.36-4.16-3.69-5.58-4-1.53-2.5-.11-3.22c3.72-1.85,8.19-6.41,6.53-9.27s-8.21-2.26-12.61-.12-9,6.77-10.23,8.09-2.14,1.3-2-.12a65.66,65.66,0,0,0-1.42-10.59A45.32,45.32,0,0,0,427.6,492c-.72-1.19,0-1.67,1.19-1.19s3.8,1.54,6.3,2.26a5.09,5.09,0,0,0,6.06-2.86c1.19-2.37,3.45-7.48,4.64-9.75s3.1-1.78,4.64-1.42a27.68,27.68,0,0,1,4.4,1.9c1.42.59,2.62.48,3.09-.24a10.91,10.91,0,0,0,1.91-2.74c.83-1.78,1.9-.95,2-.23,4.26,25.58,15.34,26.76,15.34,26.76a121,121,0,0,1-6.54,12.72,16.36,16.36,0,0,0-1.55,5.7c-.24,1.79.6,18.67,1.78,24.86s5,3.81,6.19,1.9,4.87-9.75,4.87-9.75a11.6,11.6,0,0,0,1-3.92c0-1.79-3.1-5.71-3.81-6.9s-3.33-3.56-3.33-9.51,5.35-10.12,7.25-11.66a5,5,0,0,0,1.67-5c-.84-4.6-5.71-14.27-8.09-18s-7-10.7-7-10.7h9.63l6.18-12.84,6.78,12.9,7,.06Zm38,64.81v-7.32s-2-3-6.78-3-7.67,1.43-7.67,2.68c0,2,4.28,7.67,14.45,7.67Z" transform="translate(-253.22 -250)"/><polygon class="cls-5" points="159.52 197 333.28 197 333.28 208.84 159.52 208.84 159.52 197 159.52 197"/><polygon class="cls-5" points="159.52 190.9 159.52 143.7 333.28 143.7 333.28 190.9 159.52 190.9 159.52 190.9"/><polygon class="cls-1" points="299.08 192.31 299.08 184.25 286.46 184.25 286.46 179.05 296.76 179.05 296.76 156.22 287.3 156.22 284.09 149.98 280.88 156.22 271.43 156.22 271.43 179.05 281.73 179.05 281.73 184.25 257 184.25 257 179.05 267.3 179.05 267.3 156.22 257.85 156.22 254.63 149.98 251.43 156.22 241.97 156.22 241.97 179.05 252.27 179.05 252.27 184.25 227.06 184.25 227.06 179.05 237.36 179.05 237.36 156.22 227.9 156.22 224.69 149.98 221.48 156.22 212.03 156.22 212.03 179.05 222.32 179.05 222.32 184.25 202.4 184.31 182.54 179.66 186.54 192.31 299.08 192.31 299.08 192.31"/><polygon class="cls-1" points="189.4 178.64 202.71 181.91 209.85 161.86 209.86 156.81 189.4 178.64 189.4 178.64"/><path class="cls-1" d="M474.75,272.07c-20.63,1.83-33.33,6.22-50.09,11.84,1.25-7.22,2.92-11.49,5.84-15.74-.24,3.73,2.8,7.7,8.87,7.7s9.43-3.49,9.43-5.59-1.28-5.13-4.54-5.13-4,2.33-3.73,3.27-.46,1.16-1.4,1.4-3.49-1.17-2.56-4.43c1-3.59,5.36-5.54,10.48-5.54,0,0,12.2-.49,27.7,12.22Z" transform="translate(-253.22 -250)"/><path class="cls-1" d="M574.63,284.05c-16.76-5.62-30-10-50.65-11.84,9.49-6.62,18.36-12.24,28.11-12.24,5.12,0,9.46,1.95,10.48,5.54.93,3.26-1.63,4.66-2.56,4.42s-1.64-.46-1.4-1.39-.47-3.27-3.73-3.27-4.54,3-4.54,5.13,3.37,5.6,9.43,5.6,9.11-4,8.87-7.71c2.91,4.25,4.75,8.55,6,15.76Z" transform="translate(-253.22 -250)"/><path class="cls-1" d="M487.46,268.24c-.56.88-1,1.54-1.64,2.52,3.41-.17,11.28-.35,14.42-.35s11.84.42,13.74.56c-3.07-7.12-8.87-16.94-12.92-16.94-.8,0-2.57-.42-5.9,3.41,0,0-.52,1.69,1.6,1.37,2.68-.41,3.69,2.36,3.49,3.73-.47,3.21-4.19,6.3-7.92,6.3s-4.87-.6-4.87-.6Z" transform="translate(-253.22 -250)"/><path d="M307.79,384.29,321.4,365.8c.79-3.39,1.43-12.72-2.91-19.32-4.79-7.28-11.06-4.41-12.88-3.6A11.84,11.84,0,0,0,301,347S288,361.47,273.5,375.67c-2,2-4.27,5.71-4.46,9.1a11.3,11.3,0,0,0,2.83,8c3.93,4.18,10.81,4,14.33,1.3l.24,11.54c3.63-2.92,16.71-15.46,21.35-21.35Z" transform="translate(-253.22 -250)"/><path class="cls-1" d="M499.55,357.34c77.53,0,121.69,72.81,131.28,85.6,17.12,22.83,38,41.35,62.31,35.2,35.67-9,33.77-61.89,33.77-61.89-8.56-6.19-23.24-14-49.94-51.85-26.16-37.1-85.39-92.15-177.42-92.15S348.28,327.3,322.12,364.4c-26.7,37.87-41.38,45.66-49.94,51.85,0,0-1.91,52.85,33.77,61.89,24.27,6.15,45.19-12.37,62.31-35.2,9.59-12.79,53.75-85.6,131.29-85.6Z" transform="translate(-253.22 -250)"/><path d="M499.55,355.56c72.09,0,115.54,61.92,129.67,82.07,1.28,1.82,2.33,3.31,3,4.24,8.45,11.27,17.81,21.46,28,28,10,6.46,20.84,9.44,32.44,6.5,31.67-8,32.49-52.46,32.43-59.24l-2.21-1.54c-9-6.2-23.4-16.15-47.41-50.21a223,223,0,0,0-78-67.74,215,215,0,0,0-196,0,223,223,0,0,0-78,67.74c-24,34.07-38.44,44-47.42,50.21-.79.54-1.53,1.06-2.21,1.54-.06,6.78.76,51.22,32.43,59.24,11.6,2.94,22.44,0,32.44-6.5,10.21-6.58,19.57-16.77,28-28,.7-.93,1.75-2.42,3-4.24,14.13-20.15,57.58-82.07,129.68-82.07Zm0,3.57c-70.25,0-112.9,60.77-126.77,80.55-1.23,1.74-2.23,3.17-3.1,4.33-8.67,11.57-18.33,22.05-28.93,28.9-10.8,7-22.56,10.17-35.23,7-37.08-9.4-35.13-63.52-35.13-63.67l0-.87.72-.52c1-.71,1.95-1.38,3-2.11,8.77-6.05,22.87-15.77,46.53-49.33a226.62,226.62,0,0,1,79.24-68.85,218.39,218.39,0,0,1,199.26,0,226.47,226.47,0,0,1,79.25,68.85c23.66,33.55,37.75,43.28,46.53,49.33,1,.73,2,1.4,3,2.11l.72.52,0,.87c0,.15,2,54.27-35.12,63.67-12.67,3.21-24.42,0-35.22-7-10.6-6.85-20.26-17.33-28.94-28.9-.87-1.16-1.87-2.59-3.1-4.33-13.87-19.78-56.52-80.55-126.76-80.55Z" transform="translate(-253.22 -250)"/><path class="cls-5" d="M499.55,350.47c74.74,0,119.23,63.41,133.85,84.24,1.18,1.69,2.21,3.15,2.92,4.11,19.78,26.37,37.82,37.05,55.13,32.66,25-6.34,28.13-40.81,28.48-51.23v-.39l-.32-.22c-8.81-6.07-23.56-16.24-48.26-51.28-14.77-20.94-70.78-89.24-171.81-89.24s-157,68.3-171.81,89.24c-24.54,34.79-39.93,45.42-48.21,51.13l-.32.22,0,.39c.35,10.46,3.47,45.06,28.41,51.38,17.32,4.39,35.35-6.29,55.12-32.66.73-1,1.75-2.42,2.93-4.1,14.62-20.84,59.11-84.25,133.86-84.25Z" transform="translate(-253.22 -250)"/><polygon class="cls-1" points="85.51 129.68 77.71 138.98 92.34 169.22 60.94 158.96 54.22 166.97 86.45 194.01 91.31 188.21 68.57 169.04 99.08 178.96 102.28 175.14 87.75 146 110.63 165.19 117.74 156.72 85.51 129.68 85.51 129.68"/><path class="cls-1" d="M379.47,373.35l-7.3,7.82-7.48-14.45,14.78,6.63Zm-17-19.09L355.29,362,375.44,402l4.92-5.27-5.47-10.61,9.75-10.46,11,4.67,8.11-8.7-41.29-17.39Z" transform="translate(-253.22 -250)"/><polygon class="cls-1" points="158.45 66.18 174.22 91.41 139.09 78.28 131.24 83.19 153.53 118.86 162.04 113.55 146.15 88.11 181.66 101.28 189.31 96.5 167.02 60.83 158.45 66.18 158.45 66.18"/><polygon class="cls-1" points="291.58 86.84 296 74 308.39 78.26 310.24 72.92 297.85 68.66 301.62 57.69 314.35 62.07 316.17 56.79 292.93 48.79 279.24 88.56 304.86 97.38 306.7 92.04 291.58 86.84 291.58 86.84"/><polygon class="cls-1" points="363.54 84.18 359.75 88.29 368.59 96.25 344.18 123.36 352.4 130.76 376.81 103.65 385.52 111.49 389.26 107.34 363.54 84.18 363.54 84.18"/><polygon class="cls-1" points="375.61 147.34 386.01 138.62 394.43 148.65 398.76 145.02 390.34 134.98 399.23 127.53 407.88 137.84 412.16 134.25 396.36 115.42 364.14 142.46 381.56 163.22 385.88 159.59 375.61 147.34 375.61 147.34"/><path class="cls-1" d="M677.57,408.05c2.93,3.26,2.94,7.14-.41,10.15s-7.57,2.37-10.78-1.2l-1.9-2.1,10.63-9.57,2.46,2.72ZM672,428.78c.08.09,6.51,3.28,13.61-3.12,5.94-5.35,3.94-12.68-2.25-19.56l-11.47-12.73-31.25,28.15,7.39,8.22,12.42-11.18,3.66,4.06-7.91,17.71,9.39,7.56L672,428.78Z" transform="translate(-253.22 -250)"/><polygon class="cls-1" points="260.54 45.26 260.25 62.44 243.72 62.16 244.02 44.97 232.96 44.78 232.23 86.84 243.28 87.03 243.62 67.8 260.14 68.09 259.81 87.32 270.87 87.51 271.6 45.45 260.54 45.26 260.54 45.26"/><path class="cls-1" d="M573.64,357.78c7.84,4.71,16.41,4,20.4-2.69,2.93-4.64,3-8.47-.53-15.33-.94-2-2.1-3.39-2.89-5.15-1.52-2.91-3-5.27-1.6-7.52s4.82-2.57,7.9-.72a12.27,12.27,0,0,1,5.23,7.41l5.09-2.21a20.19,20.19,0,0,0-9.09-11c-9-5.4-16.33-4-19.38,1.1s-2.2,9.35.09,13.71c0,0,1.47,2.53,2.32,4.18,2,3.41,4.36,7.67,2.73,10.39-2,3.34-5.52,4.08-8.89,2-4.32-2.74-5.33-5.91-6.24-9l-5.58,2.41c1.23,4.23,4.11,8.67,10.44,12.47Z" transform="translate(-253.22 -250)"/><path class="cls-1" d="M459,297.47c-13.78,2.93-22.8,13-19.82,26.74,1.69,7.39,8.32,21.06,29.22,16.62a21.9,21.9,0,0,0,12-6.34l-3.85-4.39a14,14,0,0,1-8.38,4.94C458,337.19,452,329,450.51,321.91c-2.22-10.45,3.87-17.7,10.82-19.17a15,15,0,0,1,9.77,1h.06l1.28-5.36c-3.33-1.34-7.3-2.23-13.47-.92Z" transform="translate(-253.22 -250)"/><path class="cls-1" d="M682,367.42c-.58-2.5-1.39-13.15,2.65-18.77,3.74-5.18,7.14-3.43,9-2.62a7,7,0,0,1,3.78,5.12,9,9,0,0,1-1.57,6c-2.57,3.33-8.39,5.53-8.39,5.53s7.46,14.62,23.27,29.14l0,9.86C689,380.83,682,367.42,682,367.42Z" transform="translate(-253.22 -250)"/><path class="cls-1" d="M692.82,364.4c2.14,3.69,7.58,12.72,21.18,25.47,2.26,2.11,7.89,3.88,11.07.31a7.7,7.7,0,0,0,1.87-5.61,11.25,11.25,0,0,0-3.3-7c-2.72-2.33-14.41-14.14-22.8-23.42a17.54,17.54,0,0,1-1.66,4.52,15.1,15.1,0,0,1-6.36,5.73Z" transform="translate(-253.22 -250)"/><path class="cls-1" d="M289.53,401.12l0-9.32c15.82-14.52,23.29-29.09,23.29-29.09s-5.82-2.2-8.38-5.53a9,9,0,0,1-1.59-6,7,7,0,0,1,3.78-5.12c1.83-.81,5.23-2.56,9,2.62,4,5.62,3,16.2,2.41,18.7,0,0-7.37,12.84-28.42,33.77Z" transform="translate(-253.22 -250)"/><path class="cls-1" d="M307.06,364.4c-2.13,3.69-7.57,12.72-21.18,25.47-2.26,2.11-7.88,3.88-11.06.31a7.75,7.75,0,0,1-1.88-5.61,11.31,11.31,0,0,1,3.31-7c2.71-2.33,14.41-14.14,22.79-23.42a17.83,17.83,0,0,0,1.67,4.52,15.06,15.06,0,0,0,6.35,5.73Z" transform="translate(-253.22 -250)"/><path class="cls-5" d="M263.11,521.93a35,35,0,1,1,35,35,35,35,0,0,1-35-35Z" transform="translate(-253.22 -250)"/><path class="cls-1" d="M317,496.55l2.12,1.73a27.56,27.56,0,0,1,7.36,9.7c2,4.79-4.17,12-6,13.66-8.17,7.63-13.26,7.5-16.17,7.93s-4.76-1.4-4.7-3.58c.19-6.44,4.75-17.41,6-19.43A7.57,7.57,0,0,1,308,504.4c3-.85,5.94-2.15,7.46-3.86a7,7,0,0,0,1.59-4Zm-29.32-4.62A32.82,32.82,0,0,1,298,490.22c5.47,0,10.69,1,15.12,3.83a3,3,0,0,1,1.46,2.88c0,4.13-6.5,5.53-10.83,5.53s-9.63-1.72-13.39-2.89-4.59-3.38-4.59-4.34.72-2.9,1.92-3.3Zm-13.86,50.49c-4.41-4.36-7.56-12.2-7.56-20.47a31.86,31.86,0,0,1,1.35-9.21s.74-1.33,1.47-.2c.51.81,1.21,1.64,1.84,2.74S275,519,274.66,521c-1.21,7.75-.12,18.09.24,19.78s-.17,2.51-1.08,1.6Zm.84-26.57c-1.56-.86-3.43-4.84-4-6a6.2,6.2,0,0,1,.18-4.27c2.58-4.57,6.26-8.72,11-10.93.55-.25,1.39-.27,1.39,1.08,0,.75.37,1.94.39,2.67s.34,2.27-.63,3.48-5.23,8.68-6.27,12.91c-.24,1-.49,2-2,1.08Zm24,37.83H298a35.86,35.86,0,0,1-16-4.33c-3.92-2.19-5.38-12.2-5.38-17.33a52.33,52.33,0,0,1,7.9-28.39c1.08-1.93,3.5-2.17,5.31-1.69s2.5.85,4.58,1.47c1.12.35,3.38.82,5.07,1.18s3.49.73,2.41,3.87-4.73,10.72-5.12,19.7c-.37,8.11.72,16.19,2.56,21.14,1.19,3.22,1.17,4.44-.64,4.38Zm8.33-1.29c-1.82.59-2.66-.7-3.5-1.67-3.26-3.72-4.1-13.73-4.1-15.06s.48-2.78,1.41-2.8c7.92-.2,13.55-2.51,18.71-6.75a30,30,0,0,0,7.87-10c.47-.94,1.48-.78,1.73.58a28.78,28.78,0,0,1,.61,5.24c0,14.4-9.7,26.22-22.73,30.44Z" transform="translate(-253.22 -250)"/><path class="cls-5" d="M737.35,521.93a35,35,0,1,0-35,35,35,35,0,0,0,35-35Z" transform="translate(-253.22 -250)"/><path class="cls-1" d="M685.06,500.54c1.51,1.71,4.43,3,7.45,3.86a7.57,7.57,0,0,1,2.29,2.16c1.28,2,5.84,13,6,19.43.06,2.18-1.77,4-4.7,3.58s-8-.3-16.16-7.93c-1.82-1.68-8-8.87-6-13.66a27.56,27.56,0,0,1,7.36-9.7l2.12-1.73a7,7,0,0,0,1.6,4Zm29.64-5.31c0,1-.83,3.16-4.59,4.34s-9.07,2.89-13.39,2.89-10.83-1.4-10.83-5.53a3,3,0,0,1,1.46-2.88c4.43-2.81,9.65-3.83,15.12-3.83a32.82,32.82,0,0,1,10.31,1.71c1.2.4,1.92,2.33,1.92,3.3Zm10.86,45.59c.36-1.69,1.45-12,.24-19.78-.31-2,3.11-4.65,3.74-5.76s1.33-1.93,1.85-2.74c.72-1.13,1.46.2,1.46.2a31.86,31.86,0,0,1,1.36,9.21c0,8.27-3.15,16.11-7.57,20.47-.91.91-1.44.09-1.08-1.6Zm-1.81-26.05c-1-4.23-5.31-11.71-6.27-12.91s-.64-2.76-.63-3.48.39-1.92.39-2.67c0-1.35.84-1.33,1.38-1.08,4.77,2.21,8.45,6.36,11,10.93a6.14,6.14,0,0,1,.18,4.27c-.6,1.18-2.46,5.16-4,6s-1.81-.12-2-1.08ZM701.16,549.3c1.84-4.95,2.93-13,2.56-21.14-.4-9-4-16.57-5.11-19.7s.72-3.5,2.41-3.87,3.93-.83,5.06-1.18c2.07-.62,2.78-1,4.58-1.47s4.23-.24,5.32,1.69A52.46,52.46,0,0,1,723.87,532c0,5.13-1.46,15.14-5.38,17.33a35.86,35.86,0,0,1-16,4.33h-.67c-1.81.06-1.84-1.16-.64-4.38ZM670.74,522a27.77,27.77,0,0,1,.62-5.24c.24-1.36,1.25-1.52,1.73-.58a29.88,29.88,0,0,0,7.86,10c5.17,4.24,10.8,6.55,18.71,6.75.92,0,1.41,1.47,1.41,2.8s-.84,11.34-4.1,15.06c-.84,1-1.67,2.26-3.5,1.67-13-4.22-22.73-16-22.73-30.44Z" transform="translate(-253.22 -250)"/><path class="cls-6" d="M667.42,521.75a35.22,35.22,0,1,1,10.32,24.91,35.1,35.1,0,0,1-10.32-24.91Zm.36,0A34.86,34.86,0,1,0,678,497.1a34.76,34.76,0,0,0-10.21,24.65Z" transform="translate(-253.22 -250)"/></svg>