<?xml version="1.0" encoding="UTF-8" standalone="no"?>
<!-- Created with Inkscape (http://www.inkscape.org/) -->

<svg
   xmlns:dc="http://purl.org/dc/elements/1.1/"
   xmlns:cc="http://creativecommons.org/ns#"
   xmlns:rdf="http://www.w3.org/1999/02/22-rdf-syntax-ns#"
   xmlns:svg="http://www.w3.org/2000/svg"
   xmlns="http://www.w3.org/2000/svg"
   xmlns:sodipodi="http://sodipodi.sourceforge.net/DTD/sodipodi-0.dtd"
   xmlns:inkscape="http://www.inkscape.org/namespaces/inkscape"
   width="4096mm"
   height="4096mm"
   viewBox="0 0 4096 4096"
   version="1.1"
   id="svg22503"
   inkscape:export-filename="G:\Users\suitedoalex\sites\lyon-logo-0.png"
   inkscape:export-xdpi="25.4"
   inkscape:export-ydpi="25.4"
   inkscape:version="0.92.2 (5c3e80d, 2017-08-06)"
   sodipodi:docname="lyon-logo.svg">
  <defs
     id="defs22497">
    <clipPath
       clipPathUnits="userSpaceOnUse"
       id="clipPath20378">
      <path
         d="M 0,0 H 1289.764 V 595.275 H 0 Z"
         id="path20376"
         inkscape:connector-curvature="0" />
    </clipPath>
  </defs>
  <sodipodi:namedview
     id="base"
     pagecolor="#ffffff"
     bordercolor="#666666"
     borderopacity="1.0"
     inkscape:pageopacity="0.0"
     inkscape:pageshadow="2"
     inkscape:zoom="0.030935922"
     inkscape:cx="6046.6609"
     inkscape:cy="6068.437"
     inkscape:document-units="mm"
     inkscape:current-layer="layer1"
     showgrid="false"
     inkscape:window-width="1600"
     inkscape:window-height="837"
     inkscape:window-x="-8"
     inkscape:window-y="-8"
     inkscape:window-maximized="1" />
  <metadata
     id="metadata22500">
    <rdf:RDF>
      <cc:Work
         rdf:about="">
        <dc:format>image/svg+xml</dc:format>
        <dc:type
           rdf:resource="http://purl.org/dc/dcmitype/StillImage" />
        <dc:title></dc:title>
      </cc:Work>
    </rdf:RDF>
  </metadata>
  <g
     inkscape:label="Layer 1"
     inkscape:groupmode="layer"
     id="layer1"
     transform="translate(0,3799)">
    <g
       id="g20372"
       transform="matrix(110.17909,0,0,-110.17909,-130307.74,21138.992)"
       inkscape:export-xdpi="4.1920948"
       inkscape:export-ydpi="4.1920948">
      <g
         id="g20374"
         clip-path="url(#clipPath20378)">
        <g
           id="g20380"
           transform="translate(1212.2747,220.5071)">
          <path
             d="m 0,0 h -21.992 l -0.003,-18.752 c 0,-1.153 0.31,-2.045 0.921,-2.651 0.605,-0.601 1.493,-0.885 2.636,-0.917 3.296,-0.093 5.372,-0.823 7.001,-2.652 l 0.441,-0.537 0.441,0.537 c 1.628,1.829 3.705,2.559 7,2.652 1.144,0.032 2.031,0.316 2.637,0.917 0.611,0.606 0.92,1.498 0.92,2.651 z"
             style="fill:#ca953e;fill-opacity:1;fill-rule:nonzero;stroke:none"
             id="path20382"
             inkscape:connector-curvature="0" />
        </g>
        <g
           id="g20384"
           transform="translate(1208.7201,198.7687)">
          <path
             d="m 0,0 c -3.442,-0.111 -5.8,-0.891 -7.442,-2.779 -1.641,1.888 -4,2.668 -7.441,2.779 -1.977,0.062 -2.987,0.98 -2.987,2.986 l 0.002,10.195 H 2.985 L 2.986,2.986 C 2.986,0.98 1.977,0.062 0,0"
             style="fill:#1d3c85;fill-opacity:1;fill-rule:nonzero;stroke:none"
             id="path20386"
             inkscape:connector-curvature="0" />
        </g>
        <g
           id="g20388"
           transform="translate(1190.8529,219.9365)">
          <path
             d="m 0,0 h 20.851 l 0.001,-7.416 H -0.001 Z"
             style="fill:#e31b22;fill-opacity:1;fill-rule:nonzero;stroke:none"
             id="path20390"
             inkscape:connector-curvature="0" />
        </g>
        <g
           id="g20392"
           transform="translate(1203.75,210.4873)">
          <path
             d="m 0,0 v -10.231 h 6.524 v 3.254 H 3.607 V 0 Z"
             style="fill:#ca953e;fill-opacity:1;fill-rule:nonzero;stroke:none"
             id="path20394"
             inkscape:connector-curvature="0" />
        </g>
        <g
           id="g20396"
           transform="translate(1206.9136,210.0434)">
          <path
             d="M 0,0 V -6.977 H 2.916 V -9.344 H -2.72 V 0 Z"
             style="fill:#ffffff;fill-opacity:1;fill-rule:nonzero;stroke:none"
             id="path20398"
             inkscape:connector-curvature="0" />
        </g>
        <g
           id="g20400"
           transform="translate(1191.8783,205.3717)">
          <path
             d="m 0,0 c 0,-2.958 2.406,-5.364 5.364,-5.364 2.958,0 5.364,2.406 5.364,5.364 0,2.958 -2.406,5.364 -5.364,5.364 C 2.406,5.364 0,2.958 0,0"
             style="fill:#ca953e;fill-opacity:1;fill-rule:nonzero;stroke:none"
             id="path20402"
             inkscape:connector-curvature="0" />
        </g>
        <g
           id="g20404"
           transform="translate(1192.3488,205.3717)">
          <path
             d="M 0,0 C 0,2.698 2.195,4.894 4.894,4.894 7.592,4.894 9.787,2.698 9.787,0 9.787,-2.698 7.592,-4.894 4.894,-4.894 2.195,-4.894 0,-2.698 0,0"
             style="fill:#ffffff;fill-opacity:1;fill-rule:nonzero;stroke:none"
             id="path20406"
             inkscape:connector-curvature="0" />
        </g>
        <g
           id="g20408"
           transform="translate(1200.0901,208.4134)">
          <path
             d="m 0,0 c -0.301,-0.125 -0.447,0.097 -0.488,0.249 -0.179,-0.179 -0.081,-0.4 -0.01,-0.462 -0.058,-0.03 -0.303,-0.17 -0.314,-0.47 0.247,-0.07 0.48,0.044 0.552,0.095 0.015,-0.081 0.126,-0.218 0.362,-0.173 -0.122,0.13 -0.179,0.362 -0.005,0.459 l 0.045,0.024 c 0.255,0.11 0.407,-0.081 0.447,-0.173 0.085,-0.188 0.012,-0.413 -0.162,-0.502 l -1.141,-0.589 c -0.584,-0.296 -0.527,-0.845 -0.4,-1.097 l 0.524,-1.038 c 0.098,-0.207 -0.049,-0.35 -0.153,-0.398 -0.168,-0.076 -0.37,-0.01 -0.449,0.145 l -0.705,1.377 c 0.039,-0.031 0.145,-0.07 0.239,-0.027 -0.31,0.501 0.238,0.482 0.059,0.935 l 0.234,-0.063 c -0.277,0.62 0.348,0.614 0.031,1.105 l 0.222,0.028 c -0.387,0.385 -0.039,0.646 -0.51,0.803 l 0.173,0.151 C -1.772,0.357 -1.926,0.773 -2.39,0.714 -2.579,0.69 -2.746,0.638 -2.916,0.585 -3.013,0.554 -3.086,0.59 -3.176,0.545 L -3.248,0.404 C -3.368,0.379 -3.566,0.323 -3.62,0.265 l 0.023,-0.166 0.035,-0.045 c 0.034,-0.17 0.089,-0.318 0.187,-0.406 l 0.287,0.071 c 0,0 0.227,-0.126 0.3,-0.315 0.042,-0.11 0.024,-0.178 -0.11,-0.18 -0.115,-0.002 -0.34,0.047 -0.43,0.061 -0.037,-0.097 -0.055,-0.283 0.029,-0.346 l 0.361,-0.017 c -0.019,-0.262 -0.208,-0.423 -0.532,-0.317 -0.93,0.301 -1.526,0.389 -1.864,1.144 0.012,0.053 0.077,0.57 -0.296,0.702 0.046,-0.145 0.085,-0.315 0.045,-0.456 -0.062,0.24 -0.242,0.399 -0.525,0.37 0.161,-0.113 0.26,-0.256 0.261,-0.402 -0.119,0.088 -0.337,0.117 -0.499,0.047 0.77,-0.348 0.508,-0.941 0.168,-0.995 0.14,-0.116 0.367,-0.085 0.504,0 l 0.461,-0.59 -0.202,-0.144 c 0.093,0.005 0.241,-0.01 0.303,-0.071 0.034,-0.093 0.08,-0.26 0.019,-0.501 0.18,0.094 0.253,0.225 0.279,0.342 l 0.678,-0.397 c -0.342,-0.18 -1.366,-0.695 -1.889,-0.454 -0.079,0.036 -0.594,0.257 -0.878,-0.031 0.192,0.006 0.379,-0.072 0.413,-0.149 -0.198,-0.022 -0.438,-0.109 -0.498,-0.33 0.074,0.048 0.325,0.066 0.454,0.044 -0.113,-0.09 -0.203,-0.25 -0.19,-0.457 0,0 0.414,0.383 0.753,0.284 0.158,-0.045 0.082,-0.322 0.05,-0.388 0.257,0.037 0.322,0.29 0.323,0.311 l 0.789,0.033 c 0.053,-0.026 0.076,-0.139 0.027,-0.229 0.135,0.038 0.195,0.118 0.229,0.245 0.166,-0.02 0.258,-0.133 0.277,-0.301 0.115,0.119 0.1,0.303 0.052,0.396 l 0.861,0.208 0.298,-0.33 c 0,0 -1.539,-0.962 -2.063,-0.937 0.081,-0.185 0.458,-0.164 0.632,-0.099 -0.053,-0.096 -0.015,-0.236 -0.015,-0.236 0,0 0.116,-0.008 0.236,0.145 l 0.194,-0.543 c -0.108,-0.237 -0.861,-0.288 -0.861,-0.288 -0.137,0.109 -0.514,0.236 -0.724,0.077 0.161,-0.007 0.291,-0.13 0.311,-0.206 -0.088,-10e-4 -0.396,-0.038 -0.466,-0.324 0.173,0.079 0.382,0.079 0.446,0.045 -0.098,-0.07 -0.219,-0.232 -0.187,-0.434 0.222,0.235 0.53,0.341 0.736,0.295 0.12,-0.027 0.126,-0.207 0.092,-0.335 0.171,0.045 0.269,0.221 0.305,0.314 l 0.824,0.257 c 0,0 0.027,-0.073 0.025,-0.191 0.103,0.012 0.204,0.139 0.212,0.23 0,0 0.155,-0.235 0.398,-0.194 -0.142,0.239 -0.336,0.852 -0.335,1.009 10e-4,0.199 0.601,0.317 0.702,0.347 l 0.291,-0.424 c 0,0 -0.296,-0.145 -0.347,-0.334 0.259,0.114 0.468,0.103 0.534,0.087 0.057,-0.06 0.113,-0.167 0.137,-0.293 0.056,0.036 0.13,0.143 0.137,0.252 0.659,-0.209 0.66,-0.31 0.499,-0.975 -0.299,0.03 -0.776,0.045 -0.879,-0.261 0.181,0.05 0.389,0.018 0.501,-0.025 -0.14,-0.048 -0.391,-0.194 -0.331,-0.482 0,0 0.243,0.273 0.523,0.224 -0.15,-0.092 -0.337,-0.285 -0.173,-0.527 0.149,0.306 0.496,0.337 0.642,0.308 l 0.206,0.446 c 0.084,0.181 0.314,0.159 0.34,-0.072 0.218,0.268 -0.027,0.561 -0.097,0.596 l 0.188,0.405 c 0.061,-0.006 0.217,-0.046 0.309,0.063 -0.096,0.029 -0.181,0.092 -0.218,0.158 0.096,-0.007 0.352,-0.046 0.473,0.121 -0.411,0.082 -1.368,0.666 -1.44,1.026 0.187,-0.152 0.459,-0.196 0.694,-0.091 0.152,0.068 0.267,0.186 0.327,0.335 0.17,0.351 0.619,0.066 0.689,0.716 -0.18,-0.255 -0.576,-0.085 -0.654,-0.401 -0.159,0.7 0.852,0.243 0.859,1.3 -0.25,-0.432 -1.141,-0.278 -1.068,-0.825 -0.382,1.129 1.33,0.398 1.236,1.864 -0.334,-0.663 -1.662,-0.487 -1.536,-1.27 l -0.073,0.144 c -0.1,0.206 -0.077,0.494 0.235,0.662 l 1.171,0.604 c 0.319,0.164 0.454,0.557 0.305,0.908 C 0.785,-0.11 0.453,0.213 0,0 m -3.092,0.29 c 0,0 -0.028,0.091 0.086,0.114 0.127,0.025 0.248,-0.052 0.352,-0.087 C -2.719,0.238 -2.97,0.191 -3.092,0.29 m 0.005,-0.683 c -0.504,-0.227 -0.924,-0.213 -1.311,0.003 0.084,-0.273 0.816,-0.63 1.311,-0.003"
             style="fill:#ca953e;fill-opacity:1;fill-rule:nonzero;stroke:none"
             id="path20410"
             inkscape:connector-curvature="0" />
        </g>
        <g
           id="g20412"
           transform="translate(1198.0391,213.5499)">
          <path
             d="m 0,0 c -0.192,-0.186 -0.425,-0.289 -0.736,-0.289 -0.31,0 -0.548,0.103 -0.739,0.289 -0.276,0.267 -0.268,0.597 -0.268,1.054 0,0.456 -0.008,0.786 0.268,1.054 0.191,0.185 0.429,0.289 0.739,0.289 C -0.425,2.397 -0.192,2.293 0,2.108 0.276,1.84 0.272,1.51 0.272,1.054 0.272,0.597 0.276,0.267 0,0 M -0.395,1.796 C -0.471,1.881 -0.59,1.937 -0.736,1.937 -0.881,1.937 -1.004,1.881 -1.08,1.796 -1.184,1.685 -1.211,1.562 -1.211,1.054 c 0,-0.509 0.027,-0.631 0.131,-0.742 0.076,-0.086 0.199,-0.141 0.344,-0.141 0.146,0 0.265,0.055 0.341,0.141 0.104,0.111 0.134,0.233 0.134,0.742 0,0.508 -0.03,0.631 -0.134,0.742"
             style="fill:#ffffff;fill-opacity:1;fill-rule:nonzero;stroke:none"
             id="path20414"
             inkscape:connector-curvature="0" />
        </g>
        <g
           id="g20416"
           transform="translate(1193.8395,213.7428)">
          <path
             d="M 0,0 H -1.142 V 2.153 L -1.17,2.182 H -1.646 L -1.674,2.153 V -0.432 L -1.646,-0.46 H 0 l 0.028,0.028 v 0.404 z"
             style="fill:#ffffff;fill-opacity:1;fill-rule:nonzero;stroke:none"
             id="path20418"
             inkscape:connector-curvature="0" />
        </g>
        <g
           id="g20420"
           transform="translate(1195.8892,215.9246)">
          <path
             d="M 0,0 H -0.536 L -1.038,-1.065 -1.547,0 h -0.55 l -0.019,-0.019 0.81,-1.539 v -1.055 l 0.028,-0.029 h 0.472 l 0.029,0.029 v 1.055 l 0.805,1.53 z"
             style="fill:#ffffff;fill-opacity:1;fill-rule:nonzero;stroke:none"
             id="path20422"
             inkscape:connector-curvature="0" />
        </g>
        <g
           id="g20424"
           transform="translate(1200.666,215.9246)">
          <path
             d="m 0,0 -0.028,-0.028 v -1.59 L -1.109,0 h -0.447 l -0.028,-0.028 v -2.585 l 0.028,-0.029 h 0.476 l 0.029,0.029 v 1.593 l 1.08,-1.622 h 0.447 l 0.028,0.029 v 2.585 L 0.476,0 Z"
             style="fill:#ffffff;fill-opacity:1;fill-rule:nonzero;stroke:none"
             id="path20426"
             inkscape:connector-curvature="0" />
        </g>
        <g
           id="g20428"
           transform="translate(1206.0358,215.8962)">
          <path
             d="m 0,0 -0.028,0.028 h -0.383 l -0.028,-0.027 -0.974,-2.594 0.021,-0.021 h 0.527 L -0.7,-2.146 H 0.269 L 0.43,-2.614 h 0.527 l 0.021,0.021 z m -0.551,-1.712 0.345,0.961 0.333,-0.961 z"
             style="fill:#ffffff;fill-opacity:1;fill-rule:nonzero;stroke:none"
             id="path20430"
             inkscape:connector-curvature="0" />
        </g>
        <g
           id="g20432"
           transform="translate(1207.5297,215.9246)">
          <path
             d="M 0,0 -0.029,-0.028 V -2.613 L 0,-2.642 h 0.476 l 0.028,0.029 v 2.585 L 0.476,0 Z"
             style="fill:#ffffff;fill-opacity:1;fill-rule:nonzero;stroke:none"
             id="path20434"
             inkscape:connector-curvature="0" />
        </g>
        <g
           id="g20436"
           transform="translate(1203.6171,215.9246)">
          <path
             d="m 0,0 -0.029,-0.028 v -1.59 L -1.109,0 h -0.447 l -0.028,-0.028 v -2.585 l 0.028,-0.029 h 0.476 l 0.028,0.029 v 1.593 l 1.081,-1.622 h 0.447 l 0.028,0.029 v 2.585 L 0.476,0 Z"
             style="fill:#ffffff;fill-opacity:1;fill-rule:nonzero;stroke:none"
             id="path20438"
             inkscape:connector-curvature="0" />
        </g>
        <g
           id="g20440"
           transform="translate(1210.4364,214.6222)">
          <path
             d="m 0,0 c -0.115,0.104 -0.272,0.171 -0.521,0.204 l -0.322,0.045 c -0.111,0.014 -0.199,0.055 -0.253,0.103 l -0.08,0.19 c 0,0.182 0.138,0.334 0.421,0.334 0.173,0 0.371,-0.022 0.539,-0.166 l 0.04,0.002 0.298,0.286 v 0.036 c -0.23,0.205 -0.497,0.291 -0.862,0.291 -0.59,0 -0.95,-0.33 -0.95,-0.802 0,-0.222 0.065,-0.393 0.195,-0.519 0.123,-0.115 0.296,-0.186 0.529,-0.219 l 0.33,-0.045 c 0.126,-0.018 0.188,-0.044 0.241,-0.092 0.058,-0.052 0.085,-0.13 0.085,-0.223 0,-0.212 -0.169,-0.327 -0.483,-0.327 -0.244,0 -0.469,0.053 -0.639,0.206 l -0.04,-0.002 -0.304,-0.295 v -0.039 c 0.264,-0.248 0.572,-0.33 0.975,-0.33 0.571,0 1.012,0.29 1.012,0.802 C 0.211,-0.327 0.146,-0.134 0,0"
             style="fill:#ffffff;fill-opacity:1;fill-rule:nonzero;stroke:none"
             id="path20442"
             inkscape:connector-curvature="0" />
        </g>
        <g
           id="g20444"
           transform="translate(1193.6746,216.7441)">
          <path
             d="m 0,0 c -0.182,-0.182 -0.405,-0.284 -0.7,-0.284 -0.296,0 -0.522,0.102 -0.704,0.284 -0.263,0.263 -0.255,0.587 -0.255,1.036 0,0.448 -0.008,0.773 0.255,1.035 0.182,0.183 0.408,0.285 0.704,0.285 0.295,0 0.518,-0.102 0.7,-0.285 C 0.263,1.809 0.259,1.484 0.259,1.036 0.259,0.587 0.263,0.263 0,0 m -0.376,1.765 c -0.072,0.084 -0.186,0.139 -0.324,0.139 -0.139,0 -0.255,-0.055 -0.328,-0.139 -0.099,-0.109 -0.124,-0.23 -0.124,-0.729 0,-0.5 0.025,-0.62 0.124,-0.73 0.073,-0.084 0.189,-0.138 0.328,-0.138 0.138,0 0.252,0.054 0.324,0.138 0.099,0.11 0.128,0.23 0.128,0.73 0,0.499 -0.029,0.62 -0.128,0.729"
             style="fill:#ffffff;fill-opacity:1;fill-rule:nonzero;stroke:none"
             id="path20446"
             inkscape:connector-curvature="0" />
        </g>
        <g
           id="g20448"
           transform="translate(1205.991,216.6586)">
          <path
             d="m 0,0 -0.202,0.202 c 0.164,0.241 0.16,0.529 0.16,0.919 0,0.449 0.004,0.773 -0.259,1.036 -0.182,0.182 -0.405,0.284 -0.7,0.284 -0.296,0 -0.522,-0.102 -0.704,-0.284 C -1.968,1.894 -1.96,1.57 -1.96,1.121 c 0,-0.448 -0.008,-0.773 0.255,-1.035 0.182,-0.183 0.408,-0.285 0.704,-0.285 0.204,0 0.379,0.048 0.525,0.142 l 0.21,-0.209 h 0.04 L 0,-0.04 Z M -0.596,0.596 -0.79,0.789 -1.059,0.523 -0.833,0.301 -1.001,0.253 c -0.139,0 -0.255,0.055 -0.328,0.139 -0.099,0.109 -0.124,0.23 -0.124,0.729 0,0.5 0.025,0.62 0.124,0.73 0.073,0.084 0.189,0.138 0.328,0.138 0.138,0 0.251,-0.054 0.324,-0.138 0.099,-0.11 0.128,-0.23 0.128,-0.73 0,-0.262 -0.007,-0.412 -0.047,-0.525"
             style="fill:#ffffff;fill-opacity:1;fill-rule:nonzero;stroke:none"
             id="path20450"
             inkscape:connector-curvature="0" />
        </g>
        <g
           id="g20452"
           transform="translate(1195.9384,216.9338)">
          <path
             d="m 0,0 h -1.036 v 2.116 l -0.029,0.028 h -0.45 L -1.543,2.116 v -2.54 l 0.028,-0.028 H 0 l 0.028,0.028 v 0.396 z"
             style="fill:#ffffff;fill-opacity:1;fill-rule:nonzero;stroke:none"
             id="path20454"
             inkscape:connector-curvature="0" />
        </g>
        <g
           id="g20456"
           transform="translate(1197.6791,219.0781)">
          <path
             d="M 0,0 H -0.508 L -0.985,-1.047 -1.47,0 h -0.509 l -0.028,-0.028 0.766,-1.504 v -1.036 l 0.029,-0.028 h 0.446 l 0.029,0.028 v 1.036 l 0.766,1.504 z"
             style="fill:#ffffff;fill-opacity:1;fill-rule:nonzero;stroke:none"
             id="path20458"
             inkscape:connector-curvature="0" />
        </g>
        <g
           id="g20460"
           transform="translate(1199.8823,219.0781)">
          <path
             d="M 0,0 -0.675,-1.404 -1.353,0 h -0.471 l -0.029,-0.028 v -2.54 l 0.029,-0.028 h 0.45 l 0.028,0.028 v 1.485 l 0.5,-0.985 h 0.343 l 0.496,0.985 v -1.485 l 0.028,-0.028 h 0.45 L 0.5,-2.568 v 2.54 L 0.471,0 Z"
             style="fill:#ffffff;fill-opacity:1;fill-rule:nonzero;stroke:none"
             id="path20462"
             inkscape:connector-curvature="0" />
        </g>
        <g
           id="g20464"
           transform="translate(1203.5634,219.0781)">
          <path
             d="m 0,0 h -0.45 l -0.029,-0.028 v -2.54 L -0.45,-2.596 H 0 l 0.028,0.028 v 2.54 z"
             style="fill:#ffffff;fill-opacity:1;fill-rule:nonzero;stroke:none"
             id="path20466"
             inkscape:connector-curvature="0" />
        </g>
        <g
           id="g20468"
           transform="translate(1207.8309,219.0781)">
          <path
             d="m 0,0 -0.028,-0.028 v -1.66 c 0,-0.3 -0.179,-0.478 -0.453,-0.478 -0.273,0 -0.448,0.178 -0.448,0.478 v 1.66 L -0.958,0 h -0.45 l -0.028,-0.028 v -1.679 c 0,-0.55 0.423,-0.911 0.955,-0.911 0.533,0 0.956,0.361 0.956,0.911 v 1.679 L 0.447,0 Z"
             style="fill:#ffffff;fill-opacity:1;fill-rule:nonzero;stroke:none"
             id="path20470"
             inkscape:connector-curvature="0" />
        </g>
        <g
           id="g20472"
           transform="translate(1209.2762,216.9338)">
          <path
             d="M 0,0 V 0.631 H 0.996 L 1.025,0.659 V 1.055 L 0.996,1.083 H 0 V 1.692 H 1.175 L 1.204,1.721 V 2.116 L 1.175,2.144 H -0.478 L -0.507,2.116 v -2.54 l 0.029,-0.028 h 1.653 l 0.029,0.028 v 0.396 L 1.175,0 Z"
             style="fill:#ffffff;fill-opacity:1;fill-rule:nonzero;stroke:none"
             id="path20474"
             inkscape:connector-curvature="0" />
        </g>
        <g
           id="g20476"
           transform="translate(1201.8748,219.0781)">
          <path
             d="m 0,0 h -0.978 l -0.029,-0.028 v -2.54 l 0.029,-0.028 h 0.45 L -0.5,-2.568 V -1.71 H 0 c 0.536,0 0.857,0.414 0.857,0.855 C 0.857,-0.414 0.536,0 0,0 M -0.026,-1.254 H -0.5 v 0.802 h 0.474 c 0.23,0 0.376,-0.191 0.376,-0.403 0,-0.211 -0.146,-0.399 -0.376,-0.399"
             style="fill:#ffffff;fill-opacity:1;fill-rule:nonzero;stroke:none"
             id="path20478"
             inkscape:connector-curvature="0" />
        </g>
      </g>
    </g>
  </g>
</svg>
